<?xml version="1.0" encoding="UTF-8" standalone="no"?>
<!-- Generator: Adobe Illustrator 17.0.1, SVG Export Plug-In . SVG Version: 6.00 Build 0)  -->

<svg
   xmlns:dc="http://purl.org/dc/elements/1.1/"
   xmlns:cc="http://creativecommons.org/ns#"
   xmlns:rdf="http://www.w3.org/1999/02/22-rdf-syntax-ns#"
   xmlns:svg="http://www.w3.org/2000/svg"
   xmlns="http://www.w3.org/2000/svg"
   xmlns:xlink="http://www.w3.org/1999/xlink"
   xmlns:sodipodi="http://sodipodi.sourceforge.net/DTD/sodipodi-0.dtd"
   xmlns:inkscape="http://www.inkscape.org/namespaces/inkscape"
   version="1.1"
   x="0px"
   y="0px"
   width="86px"
   height="86px"
   viewBox="0 0 86 86"
   enable-background="new 0 0 86 86"
   xml:space="preserve"
   id="svg2"
   inkscape:version="0.48.4 r9939"
   sodipodi:docname="icon-launcher-sendtojolla.svg"
   inkscape:export-filename="/home/mkiol/dev/firefox/sendtojolla/icon64.png"
   inkscape:export-xdpi="66.976746"
   inkscape:export-ydpi="66.976746"><metadata
     id="metadata40"><rdf:RDF><cc:Work
         rdf:about=""><dc:format>image/svg+xml</dc:format><dc:type
           rdf:resource="http://purl.org/dc/dcmitype/StillImage" /><dc:title></dc:title></cc:Work></rdf:RDF></metadata><defs
     id="defs38"><linearGradient
       gradientTransform="translate(159.24576,-13.847458)"
       id="SVGID_1_-5"
       gradientUnits="userSpaceOnUse"
       x1="85.283096"
       y1="0.71689999"
       x2="0.71689999"
       y2="85.283096"><stop
         offset="0.0054"
         style="stop-color:#51EAEE"
         id="stop7-8" /><stop
         offset="1"
         style="stop-color:#00B4E6"
         id="stop9-9" /></linearGradient><linearGradient
       gradientTransform="translate(99.483048,83.813559)"
       id="SVGID_1_-4"
       gradientUnits="userSpaceOnUse"
       x1="0.71689999"
       y1="85.283096"
       x2="85.283096"
       y2="0.71689999"><stop
         offset="0"
         style="stop-color:#EB424A"
         id="stop7-9" /><stop
         offset="1"
         style="stop-color:#FF7500"
         id="stop9-2" /></linearGradient><linearGradient
       y2="0.71689999"
       x2="85.283096"
       y1="85.283096"
       x1="0.71689999"
       gradientUnits="userSpaceOnUse"
       id="linearGradient3018"><stop
         id="stop3020"
         style="stop-color:#EB424A"
         offset="0" /><stop
         id="stop3022"
         style="stop-color:#FF7500"
         offset="1" /></linearGradient><linearGradient
       inkscape:collect="always"
       xlink:href="#SVGID_1_-4"
       id="linearGradient3101"
       gradientUnits="userSpaceOnUse"
       x1="0.71689999"
       y1="85.283096"
       x2="85.283096"
       y2="0.71689999"
       gradientTransform="translate(4e-6,0)" /><linearGradient
       gradientTransform="matrix(0,0.9756,-0.9739,0,-8.8036305,-643.57895)"
       y2="4.6216998"
       x2="832.42432"
       y1="91.0476"
       x1="746.14911"
       gradientUnits="userSpaceOnUse"
       id="SVGID_1_"><stop
         id="stop7"
         style="stop-color:#51EAEE"
         offset="0.0054" /><stop
         id="stop9"
         style="stop-color:#00B4E6"
         offset="1" /></linearGradient><linearGradient
       gradientTransform="matrix(0,-1,1,0,-96.439831,407.54915)"
       y2="72.482697"
       x2="249.65469"
       y1="9.6047001"
       x1="312.53271"
       gradientUnits="userSpaceOnUse"
       id="SVGID_2_"><stop
         id="stop14"
         style="stop-color:#51EAEE"
         offset="0.0054" /><stop
         id="stop16"
         style="stop-color:#00B4E6"
         offset="1" /></linearGradient><linearGradient
       gradientTransform="translate(-98.389831,83.449153)"
       y2="59.402"
       x2="58.965801"
       y1="20.022301"
       x1="19.5861"
       gradientUnits="userSpaceOnUse"
       id="SVGID_4_"><stop
         id="stop30"
         style="stop-color:#FFFFFF"
         offset="0" /><stop
         id="stop32"
         style="stop-color:#F3EDD1"
         offset="1" /></linearGradient><linearGradient
       inkscape:collect="always"
       xlink:href="#SVGID_4_"
       id="linearGradient3113"
       gradientUnits="userSpaceOnUse"
       x1="19.5861"
       y1="20.022301"
       x2="58.965801"
       y2="59.402" /><linearGradient
       inkscape:collect="always"
       xlink:href="#SVGID_2_"
       id="linearGradient3121"
       gradientUnits="userSpaceOnUse"
       gradientTransform="matrix(0,-1,1,0,1.95,324.1)"
       x1="312.53271"
       y1="9.6047001"
       x2="249.65469"
       y2="72.482697" /><linearGradient
       inkscape:collect="always"
       xlink:href="#SVGID_1_"
       id="linearGradient3124"
       gradientUnits="userSpaceOnUse"
       gradientTransform="matrix(0,0.9756,-0.9739,0,89.586201,-727.0281)"
       x1="746.14911"
       y1="91.0476"
       x2="832.42432"
       y2="4.6216998" /><linearGradient
       y2="85.283096"
       x2="0.71689999"
       y1="0.71689999"
       x1="85.283096"
       gradientUnits="userSpaceOnUse"
       id="linearGradient3012"><stop
         id="stop3014"
         style="stop-color:#51EAEE"
         offset="0.0054" /><stop
         id="stop3016"
         style="stop-color:#00B4E6"
         offset="1" /></linearGradient><linearGradient
       inkscape:collect="always"
       xlink:href="#SVGID_1_-5"
       id="linearGradient3132"
       gradientUnits="userSpaceOnUse"
       x1="85.283096"
       y1="0.71689999"
       x2="0.71689999"
       y2="85.283096" /><linearGradient
       gradientTransform="translate(160.70339,-2.1864405)"
       id="SVGID_1_-45"
       gradientUnits="userSpaceOnUse"
       x1="85.283096"
       y1="0.71689999"
       x2="0.71689999"
       y2="85.283096"><stop
         offset="0.0054"
         style="stop-color:#51EAEE"
         id="stop7-84" /><stop
         offset="1"
         style="stop-color:#00B4E6"
         id="stop9-5" /></linearGradient><linearGradient
       y2="85.283096"
       x2="0.71689999"
       y1="0.71689999"
       x1="85.283096"
       gradientUnits="userSpaceOnUse"
       id="linearGradient3012-1"><stop
         id="stop3014-9"
         style="stop-color:#51EAEE"
         offset="0.0054" /><stop
         id="stop3016-1"
         style="stop-color:#00B4E6"
         offset="1" /></linearGradient><linearGradient
       inkscape:collect="always"
       xlink:href="#SVGID_1_-45"
       id="linearGradient3097"
       gradientUnits="userSpaceOnUse"
       x1="85.283096"
       y1="0.71689999"
       x2="0.71689999"
       y2="85.283096" /></defs><sodipodi:namedview
     pagecolor="#ffffff"
     bordercolor="#666666"
     borderopacity="1"
     objecttolerance="10"
     gridtolerance="10"
     guidetolerance="10"
     inkscape:pageopacity="0"
     inkscape:pageshadow="2"
     inkscape:window-width="1680"
     inkscape:window-height="995"
     id="namedview36"
     showgrid="false"
     inkscape:zoom="2.744186"
     inkscape:cx="-7.4703389"
     inkscape:cy="42.999999"
     inkscape:window-x="-2"
     inkscape:window-y="-3"
     inkscape:window-maximized="1"
     inkscape:current-layer="svg2" /><path
     id="path11-5"
     d="M 1.723,0.3 H 43 c 23.583,0 42.7,19.118 42.7,42.7 v 41.277 c 0,0.786 -0.637,1.423 -1.423,1.423 H 43 C 19.417,85.7 0.3,66.582 0.3,43 V 1.723 C 0.3,0.937 0.937,0.3 1.723,0.3 z"
     inkscape:connector-curvature="0"
     style="fill:url(#linearGradient3101)" /><g
     id="Layer_2"
     display="none" /><path
     inkscape:connector-curvature="0"
     style="fill:url(#linearGradient3113)"
     id="path34"
     d="M 80.835117,56.715225 31.519043,35.139973 c -1.603431,-0.700971 -2.48362,0.09014 -1.956566,1.758258 L 43.155575,79.94375 c 0.527054,1.668118 2.171842,2.274706 3.655439,1.347856 l 8.390435,-5.244022 c 1.483596,-0.927911 3.843141,-0.827166 5.24296,0.222698 l 5.249324,3.936463 c 1.399821,1.049866 2.737072,0.489938 2.971436,-1.24393 l 1.302257,-9.634366 c 0.234363,-1.733867 1.64691,-3.900406 3.138989,-4.815592 l 7.930192,-4.860131 c 1.49208,-0.914125 1.40088,-2.23547 -0.20149,-2.937501 z m -14.016225,13.305711 -0.127257,1.055167 c -0.194066,1.599188 -0.957603,2.55255 -2.044585,2.55255 -0.714756,0 -1.46981,-0.431611 -2.184568,-1.249234 L 37.891404,44.299247 c -1.134702,-1.298014 -1.254535,-1.674481 -1.092283,-2.031859 l 0.142103,-0.310717 0.405099,-0.03288 c 0.234364,0 0.566291,0.08272 1.796435,1.065771 l 24.676065,19.695042 c 1.956567,1.561011 3.302302,4.851647 3.000069,7.336326 z" /><g
     id="g13"
     transform="matrix(0.84275559,0,0,0.84275559,-4.594935,-10.914535)"><path
       id="path15"
       d="m 76.431,40.966 c -0.067,-0.137 -0.166,-0.294 -0.343,-0.302 -0.16,-0.009 -0.332,0.103 -0.529,0.333 0,0 -3.828,6.598 -7.15,5.454 -0.73,-0.252 -0.995,-0.655 -0.995,-0.762 0.005,-0.513 0.238,-1.387 0.525,-1.897 0.052,-0.088 1.234,-2.17 1.657,-3.756 0.351,-1.322 0.517,-3.424 -0.472,-3.815 -0.2,-0.085 -0.343,-0.125 -0.446,-0.129 -0.03,-10e-4 -0.13,-0.005 -0.214,0.084 -0.233,0.253 -0.599,0.517 -0.865,0.398 -0.364,-0.159 -1.118,-0.245 -1.946,-0.132 -2.433,0.325 -5.453,2.66 -7.346,7.191 -0.072,0.094 -2.42,2.492 -3.412,2.455 -0.1,-0.172 -0.236,-0.685 -0.141,-1.793 0.074,-0.944 0.338,-2.578 1.154,-5.022 l 10e-4,-0.003 c 8.228,-8.818 12.268,-15.174 11.68,-18.389 -0.142,-0.786 -0.571,-1.375 -1.233,-1.701 -0.21,-0.104 -0.492,-0.125 -0.694,-0.125 -0.61,0 -2.831,0.23 -5.55,3.216 -2.861,3.141 -5.277,8.193 -7.189,15.019 -0.293,1.069 -0.566,2.095 -0.808,3.057 -0.532,0.497 -1.053,1.003 -1.565,1.497 -2.033,1.974 -4.141,4.016 -5.191,4.016 -0.112,0 -0.209,-0.03 -0.293,-0.089 -0.078,-0.094 -0.277,-0.704 -0.109,-2.307 0.168,-1.503 0.598,-3.366 1.232,-5.254 8.201,-8.79 12.089,-14.756 11.549,-17.732 -0.152,-0.773 -0.584,-1.358 -1.281,-1.697 -0.207,-0.103 -0.491,-0.129 -0.69,-0.129 -0.611,0 -2.831,0.234 -5.55,3.219 -2.854,3.132 -5.266,8.167 -7.173,14.962 -0.233,0.294 -1.308,1.264 -1.947,1.659 -0.142,-1.097 -1.062,-1.941 -2.006,-2.165 -0.219,-0.048 -0.448,-0.077 -0.674,-0.077 -1.23,0 -2.374,0.765 -3.333,1.513 -1.147,0.893 -2.472,2.08 -3.583,4.074 -1.505,2.71 -2.742,7.092 -0.785,8.362 0.442,0.288 0.936,0.437 1.46,0.437 10e-4,0 0,0 10e-4,0 2.661,0 5.473,-3.706 6.33,-5.133 0.917,-1.517 1.83,-3.496 2.309,-4.762 0.447,-0.144 0.948,-0.379 1.411,-0.627 -1.135,4.778 -1.193,7.743 -0.185,9.037 0.386,0.497 0.915,0.754 1.575,0.754 1.03,0 2.133,-0.628 2.875,-1.093 0.731,-0.458 2.446,-2.007 4.764,-4.298 -0.269,2.09 -0.077,3.501 0.583,4.298 0.393,0.471 0.926,0.709 1.591,0.709 0.747,0 1.542,-0.311 2.216,-0.663 0.908,-0.442 1.666,-0.945 1.709,-0.983 0.182,-0.152 0.385,-0.231 0.563,-0.224 0.194,0.006 0.354,0.101 0.435,0.27 0.032,0.073 1.114,1.818 2.339,1.818 2.04,0 3.416,-1.538 3.499,-1.608 0.154,-0.131 0.329,-0.197 0.479,-0.19 0.196,0.007 0.341,0.185 0.476,0.354 0.235,0.293 1.383,1.278 2.702,1.333 2.036,0.081 4.007,-0.862 5.783,-2.768 0.568,-0.61 2.991,-4.267 2.995,-4.765 0,-0.299 -0.059,-0.849 -0.195,-1.129 z M 63.419,22.308 c 1.039,3.66 -3.803,9.816 -6.316,12.849 1.543,-4.981 5.103,-10.906 6.316,-12.849 z m -9.901,-0.434 c 1.079,3.587 -3.663,9.142 -6.188,12.048 1.518,-4.866 4.994,-10.269 6.188,-12.048 z M 36.015,44.989 c -0.625,0.663 -1.24,1.063 -1.654,1.063 -0.049,0 -0.099,-0.007 -0.141,-0.023 -0.415,-0.136 -0.67,-0.444 -0.775,-0.951 -0.248,-1.167 0.336,-2.889 0.805,-3.852 0.202,0.335 0.541,0.657 1.093,0.841 0.313,0.105 0.641,0.162 0.975,0.162 0.535,0 1.021,-0.141 1.422,-0.297 -0.193,0.925 -0.858,2.13 -1.725,3.057 z m 30.109,-4.264 c -0.003,0.015 -1.261,3.562 -1.583,4.019 -0.268,0.377 -1.188,1.277 -2.203,1.153 -0.565,-0.064 -1.701,-1.012 -1.247,-2.412 0.842,-2.601 2.755,-4.236 4.111,-4.24 1.037,-0.007 1.108,0.982 0.922,1.48 z M 29.722,31.836 c -0.373,0.421 -0.929,0.675 -1.483,0.675 l 0,0 c -0.727,0 -1.318,-0.41 -1.623,-1.128 -0.492,-1.154 -0.763,-2.499 0.948,-3.678 0.191,-0.134 0.395,-0.203 0.605,-0.203 0.875,0 1.543,1.146 1.787,1.64 0.548,1.106 0.482,1.89 -0.234,2.694 z m -1.69,15.262 c 0.321,-0.914 0.617,-1.741 0.879,-2.472 1.022,-2.827 1.583,-4.39 1.547,-5.725 -0.036,-1.292 -0.668,-2.38 -1.569,-2.696 -0.167,-0.059 -0.342,-0.09 -0.52,-0.09 -0.678,0 -1.237,0.407 -1.512,0.763 -0.351,0.457 -0.251,1.065 -0.151,1.653 0.043,0.258 0.09,0.522 0.096,0.781 0.043,1.484 -0.883,5.299 -1.401,6.599 -0.432,1.085 -4.656,4.405 -5.437,4.974 C 17.048,53.016 11.82,57.314 9.568,62.18 7.723,66.174 9.09,68.231 9.253,68.45 l 0.011,0.014 c 0.704,0.968 1.615,1.172 2.254,1.172 l 0,0 c 0.716,0 1.511,-0.247 2.364,-0.736 3.457,-1.978 9.394,-10.534 11.828,-16.153 0.148,-0.349 0.859,-1.825 1.052,-2.053 0.067,-0.082 0.287,-0.216 0.501,-0.336 0.299,-0.178 0.64,-0.38 0.798,-0.573 0.289,-0.346 0.554,-1.087 0.039,-1.593 -0.376,-0.374 -0.268,-0.62 -0.142,-0.908 0.023,-0.061 0.052,-0.125 0.074,-0.186 z M 11.994,63.423 c -0.25,-1.156 1.582,-3.822 2.96,-5.35 l 0.048,-0.052 c 1.476,-1.632 2.369,-2.612 4.403,-4.179 1.856,-1.431 2.698,-1.797 3.073,-1.866 -0.203,0.547 -0.493,1.232 -1.156,2.327 -2.829,4.662 -6.728,9.68 -8.591,9.68 -0.12,0 -0.23,-0.022 -0.326,-0.066 -0.225,-0.095 -0.36,-0.256 -0.411,-0.494 z"
       inkscape:connector-curvature="0"
       style="fill:#ffffff" /></g></svg>